/* XPM */
static char * bitcoin64_xpm[] = {
"64 64 656 2",
"  	c None",
". 	c #BAD8A8",
"+ 	c #BBD9A9",
"@ 	c #BCD9A9",
"# 	c #BEDAAA",
"$ 	c #AAD0A0",
"% 	c #9ECA9B",
"& 	c #96C697",
"* 	c #90C394",
"= 	c #8EC293",
"- 	c #95C697",
"; 	c #A8D0A0",
"> 	c #C1DBAD",
", 	c #CDE0B3",
"' 	c #CADFB1",
") 	c #BFDBAA",
"! 	c #AED2A2",
"~ 	c #7FBB8C",
"{ 	c #74B587",
"] 	c #78B789",
"^ 	c #7AB88A",
"/ 	c #79B88A",
"( 	c #89C18E",
"_ 	c #9FCE94",
": 	c #A4D098",
"< 	c #B2D5A1",
"[ 	c #C2DBAB",
"} 	c #7EBA8C",
"| 	c #77B789",
"1 	c #7AB98A",
"2 	c #7BBA8B",
"3 	c #87C08E",
"4 	c #A3CF97",
"5 	c #A1CE96",
"6 	c #9FCD95",
"7 	c #B8D8A5",
"8 	c #CCE0B3",
"9 	c #C9DEB0",
"0 	c #BFDAAA",
"a 	c #9FCA9B",
"b 	c #7CBC8B",
"c 	c #7AB78A",
"d 	c #71A383",
"e 	c #6A947D",
"f 	c #648879",
"g 	c #5F7F76",
"h 	c #5C7A74",
"i 	c #5E7E75",
"j 	c #638778",
"k 	c #7FA084",
"l 	c #8CB18B",
"m 	c #A0CC95",
"n 	c #A5D498",
"o 	c #A0CE95",
"p 	c #B3D4A5",
"q 	c #7BBA8A",
"r 	c #79B589",
"s 	c #6A947E",
"t 	c #577171",
"u 	c #637474",
"v 	c #839784",
"w 	c #99AD8F",
"x 	c #A9BD97",
"y 	c #B5C89C",
"z 	c #BBCE9F",
"A 	c #BACD9D",
"B 	c #CAD6B1",
"C 	c #BCC9A8",
"D 	c #A9B79D",
"E 	c #889B8A",
"F 	c #607373",
"G 	c #5A7271",
"H 	c #7D9E84",
"I 	c #9DC994",
"J 	c #A3D197",
"K 	c #C5DDAE",
"L 	c #9DCA9A",
"M 	c #75B688",
"N 	c #76AE87",
"O 	c #628377",
"P 	c #607173",
"Q 	c #98AB90",
"R 	c #C0D2A1",
"S 	c #CCDFA7",
"T 	c #C6D9A5",
"U 	c #C4D7A4",
"V 	c #C5D8A4",
"W 	c #C2D7A2",
"X 	c #DFE8BC",
"Y 	c #DEE8BC",
"Z 	c #DDE7BC",
"` 	c #D5E3B3",
" .	c #CCDEA7",
"..	c #C1D4A2",
"+.	c #95A98D",
"@.	c #5D7072",
"#.	c #6B877A",
"$.	c #96C090",
"%.	c #9ECD94",
"&.	c #B7D7A5",
"*.	c #BDDAAA",
"=.	c #8BC192",
"-.	c #648779",
";.	c #657676",
">.	c #B8C5A6",
",.	c #EAF3C3",
"'.	c #CDDEAC",
").	c #D4E2B3",
"!.	c #CEE1A8",
"~.	c #A8BC96",
"{.	c #617574",
"].	c #6F8C7C",
"^.	c #A0CD96",
"/.	c #A0CE96",
"(.	c #ABD29C",
"_.	c #CCE0B2",
":.	c #BDD9A9",
"<.	c #84BD8F",
"[.	c #72A584",
"}.	c #566B6F",
"|.	c #A9B89E",
"1.	c #E9F1C2",
"2.	c #DDE8BC",
"3.	c #C2D6A2",
"4.	c #CEE0A8",
"5.	c #9DB191",
"6.	c #556A6E",
"7.	c #8DB38C",
"8.	c #A7D19A",
"9.	c #CCDFB2",
"0.	c #7CBD8C",
"a.	c #69907C",
"b.	c #677A77",
"c.	c #CCDBAC",
"d.	c #C9D9A5",
"e.	c #BED5A2",
"f.	c #ADCE9C",
"g.	c #A3CA98",
"h.	c #9FC897",
"i.	c #AACE9A",
"j.	c #C2DDAB",
"k.	c #C4DCAD",
"l.	c #D2E3B6",
"m.	c #DDE6B7",
"n.	c #C6D8A4",
"o.	c #C3D6A3",
"p.	c #677B77",
"q.	c #779680",
"r.	c #638378",
"s.	c #788D7E",
"t.	c #CBDEA7",
"u.	c #CEDEAD",
"v.	c #D3E0AF",
"w.	c #B3D19E",
"x.	c #AAD09A",
"y.	c #8CC38F",
"z.	c #79B78A",
"A.	c #93C692",
"B.	c #88C18E",
"C.	c #75B587",
"D.	c #76B687",
"E.	c #94C393",
"F.	c #B3D09E",
"G.	c #CBDBA6",
"H.	c #7B8F80",
"I.	c #6A867A",
"J.	c #A5D398",
"K.	c #A2CE9A",
"L.	c #9DCA9B",
"M.	c #638377",
"N.	c #899A8C",
"O.	c #D2E3AD",
"P.	c #E2EABE",
"Q.	c #CFE2B2",
"R.	c #88BF90",
"S.	c #76B689",
"T.	c #9CCB94",
"U.	c #8FC490",
"V.	c #8AC18F",
"W.	c #7EBA8B",
"X.	c #BBD5A0",
"Y.	c #C8D9A5",
"Z.	c #CCDFA8",
"`.	c #839884",
" +	c #6B867A",
".+	c #9ACA93",
"++	c #77B689",
"@+	c #9BC99A",
"#+	c #7F9286",
"$+	c #E8F1C2",
"%+	c #CADBA9",
"&+	c #AFD49F",
"*+	c #81BC8C",
"=+	c #78B78A",
"-+	c #94C592",
";+	c #C4D8A4",
">+	c #7B9080",
",+	c #74947F",
"'+	c #79BA8A",
")+	c #B1D4A4",
"!+	c #80BB8C",
"~+	c #72A583",
"{+	c #6A7C7A",
"]+	c #E5EFC0",
"^+	c #DFE9BD",
"/+	c #D5E5B7",
"(+	c #A2CF96",
"_+	c #A2CE96",
":+	c #85BF8D",
"<+	c #B9D3A0",
"[+	c #697C78",
"}+	c #CDE0B2",
"|+	c #DAE4B9",
"1+	c #C3D9A6",
"2+	c #84BE8D",
"3+	c #B4D19E",
"4+	c #576B6F",
"5+	c #9DCC95",
"6+	c #79B889",
"7+	c #C9DBA9",
"8+	c #C0D6A2",
"9+	c #9FCE95",
"0+	c #83BD8D",
"a+	c #88BE8F",
"b+	c #B9D39F",
"c+	c #638478",
"d+	c #9DCE95",
"e+	c #A0CD95",
"f+	c #E9F2C2",
"g+	c #B6D39F",
"h+	c #D6E2B2",
"i+	c #9ECC95",
"j+	c #ABD099",
"k+	c #DFE7B9",
"l+	c #B6D3A0",
"m+	c #75B689",
"n+	c #C4D7A3",
"o+	c #637675",
"p+	c #96BF90",
"q+	c #B7D8A4",
"r+	c #BFDBAB",
"s+	c #E2EABF",
"t+	c #ACD39C",
"u+	c #D8E3B3",
"v+	c #E0E9BE",
"w+	c #C7DAA8",
"x+	c #ADD09A",
"y+	c #E1EABF",
"z+	c #D4E1B0",
"A+	c #73B588",
"B+	c #88BE8E",
"C+	c #CADAA6",
"D+	c #AABE97",
"E+	c #6A8579",
"F+	c #A2CF97",
"G+	c #607273",
"H+	c #CDE1B2",
"I+	c #9FC895",
"J+	c #DDE7BB",
"K+	c #B9D5A0",
"L+	c #8DC490",
"M+	c #B3D29C",
"N+	c #E0EABF",
"O+	c #CCDEAD",
"P+	c #83BE8D",
"Q+	c #AECE9C",
"R+	c #5F7273",
"S+	c #9CC793",
"T+	c #C1DBAB",
"U+	c #A1B099",
"V+	c #E3EABF",
"W+	c #A7D09A",
"X+	c #7CBA8B",
"Y+	c #B0D09D",
"Z+	c #DCE6BA",
"`+	c #99C693",
" @	c #B8D5A0",
".@	c #C6DAAA",
"+@	c #AFD09C",
"@@	c #B1D09E",
"#@	c #CCDBA6",
"$@	c #97AB8E",
"%@	c #7B9D83",
"&@	c #AAD29E",
"*@	c #B9D8A8",
"=@	c #55706F",
"-@	c #D7E2B8",
";@	c #D0E2B3",
">@	c #C6D9A7",
",@	c #7FBA8B",
"'@	c #BBD6A2",
")@	c #C0D8A7",
"!@	c #87BD8D",
"~@	c #DFE8BD",
"{@	c #C2D7A4",
"]@	c #76B789",
"^@	c #B1CF9D",
"/@	c #576F70",
"(@	c #A6D599",
"_@	c #97C893",
":@	c #7BB88B",
"<@	c #7AB789",
"[@	c #647676",
"}@	c #E7F0C1",
"|@	c #B7D7A3",
"1@	c #9ECD95",
"2@	c #9DCD94",
"3@	c #9ECE95",
"4@	c #9BCA94",
"5@	c #D2E0B0",
"6@	c #C5D9A7",
"7@	c #BED8A4",
"8@	c #BBD5A4",
"9@	c #AACD9A",
"0@	c #DDE6B8",
"a@	c #ABCD9B",
"b@	c #92C393",
"c@	c #647775",
"d@	c #94C491",
"e@	c #BCD8A9",
"f@	c #72A283",
"g@	c #8C9C8D",
"h@	c #E4EBC0",
"i@	c #A7CF97",
"j@	c #D8E2B3",
"k@	c #D7E2B3",
"l@	c #D5E1B1",
"m@	c #D3E1AF",
"n@	c #CEDEAE",
"o@	c #CCDDAC",
"p@	c #DCE7BA",
"q@	c #C1D8A6",
"r@	c #BCD5A3",
"s@	c #CDDDAC",
"t@	c #DEE8BD",
"u@	c #CCDDAB",
"v@	c #8EC18F",
"w@	c #76B688",
"x@	c #C6D9A4",
"y@	c #869A85",
"z@	c #6FA082",
"A@	c #7EBB8B",
"B@	c #A8B79D",
"C@	c #D8E6B8",
"D@	c #C4D8A5",
"E@	c #DAE5B7",
"F@	c #DBE6B9",
"G@	c #DDE7BA",
"H@	c #E0E9BD",
"I@	c #E0EABE",
"J@	c #A7CC9A",
"K@	c #C4DAA8",
"L@	c #DAE6B9",
"M@	c #DBE5B6",
"N@	c #9FC796",
"O@	c #BAD4A0",
"P@	c #9CB190",
"Q@	c #6A927D",
"R@	c #638779",
"S@	c #CBE0B0",
"T@	c #A5CF98",
"U@	c #A7CF98",
"V@	c #AAD199",
"W@	c #94C391",
"X@	c #91C291",
"Y@	c #A9CE98",
"Z@	c #AED19A",
"`@	c #A8CD98",
" #	c #A5CA98",
".#	c #7CB98B",
"+#	c #C7DBA8",
"@#	c #C2D8A6",
"##	c #81BB8C",
"$#	c #ACC098",
"%#	c #668779",
"&#	c #A2D097",
"*#	c #CBDFB2",
"=#	c #5E7F75",
"-#	c #CAD5B0",
";#	c #C3DDAB",
">#	c #8EC490",
",#	c #AACD9B",
"'#	c #9CC695",
")#	c #A2C998",
"!#	c #B8CC9E",
"~#	c #668177",
"{#	c #AFD59F",
"]#	c #5A7972",
"^#	c #D2DDB5",
"/#	c #BFDBA9",
"(#	c #9DC796",
"_#	c #BFD1A1",
":#	c #607B75",
"<#	c #A4D297",
"[#	c #91C594",
"}#	c #BED1A1",
"|#	c #A6D398",
"1#	c #80BC8C",
"2#	c #8CC192",
"3#	c #9ACB94",
"4#	c #B4D29D",
"5#	c #88C18F",
"6#	c #A2C997",
"7#	c #B9CC9E",
"8#	c #688278",
"9#	c #84C08D",
"0#	c #CAE0B0",
"a#	c #DEE7BB",
"b#	c #A5CB99",
"c#	c #92C692",
"d#	c #B0D29B",
"e#	c #BCD6A4",
"f#	c #ACCE9D",
"g#	c #9FC896",
"h#	c #96C492",
"i#	c #8FC090",
"j#	c #84BC8D",
"k#	c #7EBC8A",
"l#	c #ADC098",
"m#	c #628578",
"n#	c #7BB98A",
"o#	c #93C696",
"p#	c #BBD8A8",
"q#	c #6A937D",
"r#	c #D7E5B8",
"s#	c #86BF8E",
"t#	c #CBDCAB",
"u#	c #DDE8BB",
"v#	c #B0D09F",
"w#	c #95C793",
"x#	c #D7E2B4",
"y#	c #E1EABE",
"z#	c #DBE6B8",
"A#	c #D8E3B5",
"B#	c #DBE4B5",
"C#	c #D1DFAE",
"D#	c #8ABF8F",
"E#	c #BAD3A0",
"F#	c #69917D",
"G#	c #9CC99A",
"H#	c #A9D0A0",
"I#	c #79B789",
"J#	c #8EB28B",
"K#	c #8C9D8D",
"L#	c #A5CF97",
"M#	c #D3E0B0",
"N#	c #DBE5B7",
"O#	c #C6DAA7",
"P#	c #BCD6A5",
"Q#	c #91C691",
"R#	c #CBDDAB",
"S#	c #D0DFAD",
"T#	c #B2D1A1",
"U#	c #BFD7A6",
"V#	c #CADCAC",
"W#	c #D7E3B2",
"X#	c #D8E3B4",
"Y#	c #DAE4B6",
"Z#	c #C6DAA8",
"`#	c #CDDBA6",
" $	c #869A86",
".$	c #70A182",
"+$	c #A7CFA0",
"@$	c #78B788",
"#$	c #627576",
"$$	c #E6EFC1",
"%$	c #B6D7A3",
"&$	c #A9D098",
"*$	c #D7E3B4",
"=$	c #D9E4B5",
"-$	c #A6CE98",
";$	c #CADCAB",
">$	c #A1C897",
",$	c #6EB287",
"'$	c #8AC18E",
")$	c #92C292",
"!$	c #CADDA7",
"~$	c #687A77",
"{$	c #78B489",
"]$	c #B8D7A7",
"^$	c #BFDAAB",
"/$	c #58716F",
"($	c #D9E3B9",
"_$	c #CFE2B3",
":$	c #AFD29B",
"<$	c #DBE5B8",
"[$	c #D5E1B2",
"}$	c #E1E9BF",
"|$	c #D9E4B3",
"1$	c #71B487",
"2$	c #B7D49F",
"3$	c #82BC8C",
"4$	c #546D6F",
"5$	c #7DBE8C",
"6$	c #CBDFB1",
"7$	c #7D9E83",
"8$	c #A3B29A",
"9$	c #A5D099",
"0$	c #A9D099",
"a$	c #D7E1B2",
"b$	c #CFDEAD",
"c$	c #85BE8D",
"d$	c #ADD199",
"e$	c #CFDFAD",
"f$	c #7EB98B",
"g$	c #98AC8E",
"h$	c #93C596",
"i$	c #5E7173",
"j$	c #CCE0B1",
"k$	c #A3CE97",
"l$	c #A4D097",
"m$	c #DCE6B9",
"n$	c #84BD8D",
"o$	c #8CBF8F",
"p$	c #DEE7BA",
"q$	c #ACCE9B",
"r$	c #CDE0A8",
"s$	c #637574",
"t$	c #77B288",
"u$	c #ABD1A1",
"v$	c #CDE1B3",
"w$	c #BAC8A7",
"x$	c #DAE4B7",
"y$	c #8EC090",
"z$	c #B2D09E",
"A$	c #DAE4B5",
"B$	c #87BE8E",
"C$	c #ABBF98",
"D$	c #607E76",
"E$	c #7BBB8B",
"F$	c #CADEB1",
"G$	c #97C090",
"H$	c #C9DBA8",
"I$	c #B3D29E",
"J$	c #98C493",
"K$	c #D4E1B1",
"L$	c #BCD5A2",
"M$	c #72B488",
"N$	c #C3D7A3",
"O$	c #75AB85",
"P$	c #BAD7A8",
"Q$	c #ACBA9F",
"R$	c #BFD6A2",
"S$	c #8BBF8F",
"T$	c #B7D29F",
"U$	c #9FB492",
"V$	c #C9DFB1",
"W$	c #54696D",
"X$	c #DBE5BA",
"Y$	c #C2D9A5",
"Z$	c #9DCC94",
"`$	c #B2D09D",
" %	c #586B6F",
".%	c #79B68A",
"+%	c #A4CF98",
"@%	c #6A7D7A",
"#%	c #D4E4B6",
"$%	c #6B7E79",
"%%	c #71A182",
"&%	c #7DBA8C",
"*%	c #829488",
"=%	c #ADD39D",
"-%	c #A1CE95",
";%	c #92C592",
">%	c #7E9382",
",%	c #678B7B",
"'%	c #B0D3A3",
")%	c #B7D7A4",
"!%	c #6A8679",
"~%	c #8D9E8E",
"{%	c #CCE1B1",
"]%	c #86BF8F",
"^%	c #B9D59F",
"/%	c #879B86",
"(%	c #607F76",
"_%	c #9AC899",
":%	c #D4E0AE",
"<%	c #B0CF9D",
"[%	c #A9CF99",
"}%	c #607F77",
"|%	c #779580",
"1%	c #687C77",
"2%	c #CDDCAD",
"3%	c #C8D9A6",
"4%	c #BCD5A1",
"5%	c #ACCD9B",
"6%	c #A6CC99",
"7%	c #A4CB98",
"8%	c #ACCF9A",
"9%	c #C1DCAA",
"0%	c #CFE1B4",
"a%	c #6B7F78",
"b%	c #678A7A",
"c%	c #7CBD8B",
"d%	c #82BC8E",
"e%	c #75A684",
"f%	c #ADBBA0",
"g%	c #E8F2C2",
"h%	c #586C6F",
"i%	c #A3CF96",
"j%	c #628477",
"k%	c #687A78",
"l%	c #BCC9A9",
"m%	c #EAF2C3",
"n%	c #ABBF97",
"o%	c #79B689",
"p%	c #A2CD9C",
"q%	c #7ABA8B",
"r%	c #84B58A",
"s%	c #698579",
"t%	c #617375",
"u%	c #9BAE92",
"v%	c #CBDDA7",
"w%	c #CADDA6",
"x%	c #98AC8F",
"y%	c #75AB86",
"z%	c #88C08E",
"A%	c #7C9D83",
"B%	c #637775",
"C%	c #859985",
"D%	c #9CB090",
"E%	c #AEC19A",
"F%	c #BDCEA3",
"G%	c #C5D6A7",
"H%	c #C4D5A6",
"I%	c #CEDAB4",
"J%	c #C0CCAB",
"K%	c #8D9E8C",
"L%	c #546C6F",
"M%	c #B1D3A3",
"N%	c #A3CD9E",
"O%	c #87AD89",
"P%	c #68917C",
"Q%	c #638578",
"R%	c #5E7D74",
"S%	c #607A74",
"T%	c #5F7A73",
"U%	c #648176",
"V%	c #6F8C7B",
"W%	c #68917D",
"X%	c #A1CF96",
"Y%	c #A5D298",
"Z%	c #81BD8D",
"`%	c #7BB98B",
" &	c #A1CE97",
".&	c #9FCD96",
"+&	c #82BD8C",
"@&	c #75B588",
"#&	c #B9D7A7",
"$&	c #A8CFA0",
"%&	c #B3D5A4",
"&&	c #B1D5A1",
"*&	c #AED49F",
"=&	c #AED49E",
"-&	c #95C695",
";&	c #C2DBAD",
"                                                                                                                                ",
"                                                                                                                                ",
"                                                                                                                                ",
"                                                                                                                                ",
"                                                                                                                                ",
"                                                          . + @ @ + .                                                           ",
"                                                . # . $ % & * = = * - % ; > , '                                                 ",
"                                          . ) ! - ~ { ] ^ ^ ^ ^ ^ ^ ^ / ( _ : < [ , '                                           ",
"                                      . # % } | ^ ^ ^ ^ ^ 1 2 2 2 2 1 3 4 5 5 5 6 4 7 8 9                                       ",
"                                    0 a ] ^ ^ ^ ^ b c d e f g h h i j k l m n 5 5 5 5 o 7 ,                                     ",
"                                . p ~ ^ ^ ^ q r s t u v w x y z A B C D E F G H I J 5 5 5 : K '                                 ",
"                              # L M ^ ^ q N O P Q R S T U V V V W X Y Z `  ...+.@.#.$.J 5 5 %.&.,                               ",
"                            *.=./ ^ ^ ^ -.;.>.,.'.V V V V V V V W X Y Y ).V V V !.~.{.].^.5 5 /.(._.                            ",
"                          :.<.^ ^ q [.}.|.1.2.Y '.V V V V V V V 3.Y Y Y ).V V V V V 4.5.6.7.J 5 5 8.9.                          ",
"                        *.<.^ ^ 0.a.b.c.Y Y Y Y '.V V d.e.f.g.h.i.j.k.l.m.n.V V V V V V o.p.q.n 5 5 8._.                        ",
"                      # =.^ ^ b r.s.t.u.Y Y Y Y v.w.x./.y.z.^ ^ A.5 B.C.D.E.F.G.V V V V V t.H.I.J.5 5 K.*.                      ",
"                    . L./ ^ 0.M.N.O.V u.Y Y P.Q.R.S.T.5 U.^ ^ ^ A.5 V.^ ^ ^ ] W.X.Y.V V V V Z.`. +n .+++@+.                     ",
"                    p M ^ 2 a.#+$+%+V u.Y Y &+o *+=+T.5 U.^ ^ ^ A.5 V.^ ^ ^ ^ ++/.-+;+V V V V Z.>+,+'+^ M )+                    ",
"                  0 !+^ ^ ~+{+]+^+%+V u./+/.5 (+*+=+T.5 U.^ ^ ^ A.5 V.^ ^ ^ ^ ++_+:+] <+V V V V  .[+d ^ ^ ~ }+                  ",
"                . a ^ ^ ^ 6.|+Y ^+%+V 1+%.5 5 (+*+z.T.5 U.^ ^ ^ A.5 V.^ ^ ^ ^ ++_+2+^ M 3+V V V V o.4+z.z.5+&.'                 ",
"                # 6+^ q -.|.Y Y ^+7+8+9+5 5 5 (+0+a+T.5 U.^ ^ ^ A.5 U.~ ] ^ ^ ++_+2+^ ^ M b+;+V V V 5.c+d+5 e+_.                ",
"              . % ^ ^ N ;.f+Y Y ^+%+/.5 5 5 5 5 g+h+i+5 U.^ ^ ^ A._+j+k+l+m+^ ++_+2+^ ^ ^ =+n+V V V !.o+p+5 5 q+'               ",
"              r+} ^ q O >.2.Y Y s+t+5 5 5 5 5 5 u+v+w+9+U.^ ^ ^ A._+x+y+z+A+^ ++_+2+^ ^ ^ ^ B+C+V V V D+E+J 5 F+,               ",
"              ! | ^ r G+f+Y Y Y H+6 5 5 5 5 5 (+I+J+Y K+L+^ ^ ^ A.5 M+N+O+M ^ ++_+P+=+^ ^ ^ ] Q+V V V !.R+S+5 9+T+              ",
"            . - ^ ^ s U+Y Y Y V+W+5 5 5 5 5 5 (+X+Y+Y Z+`+^ ^ ^ A.5  @v+.@S.^ ++9++@@@/ ^ ^ ^ } #@V V V $@%@5 5 &@*@            ",
"            # ~ ^ b =@-@Y Y Y ;@6 5 5 5 5 5 5 (+*+S.>@v+h+,@^ ^ A./.'@v+)@| =+!@'.~@v+{@]@^ ^ ] ^@V V V o./@(@_@:@)             ",
"            . { ^ <@[@}@Y Y X |@5 5 5 5 5 1@2@3@1 A+4@5@v+6@]@/ A./.7@v+8@M 9@0@v+0@a@] ^ ^ ^ ^ b@n.V V t.c@d@| C.e@            ",
"            $ ] ^ f@g@^+Y Y h@6 5 5 5 5 i@j@k@l@m@n@o@7+p@Y f.] A./.q@v+r@s@t@~@u@v@=+^ ^ ^ ^ ^ w@#@V V x@y@z@^ A@)             ",
"            % ^ ^ s B@Z Y Y C@%.5 5 5 9+D@E@E@F@G@X H@y+y+I@J@z.A./.K@^+L@v+M@N@6 :+^ ^ ^ ^ ^ ^ ++O@V V V P@Q@W.(+&.'           ",
"          . & ^ 1 R@C Y Y Y S@o 5 5 5 5 5 T@U@V@W@X@Y@Z@`@ #.#/ A.9++#v+J+@###S._+2+^ ^ ^ ^ ^ ^ z.a@V V V $#%#&#5 < *#          ",
"          + * ^ 2 =#-#Y Y Y ;#5 5 5 5 5 5 5 5 (+*+z.T.5 U.^ ^ ^ A.5 >#,#'#M ^ ++_+2+^ ^ ^ ^ ^ ^ ^ )#;+V V !#~#J 5 {##           ",
"          @ = ^ 2 ]#^#Y Y Y /#5 5 5 5 5 5 5 5 (+*+=+T.5 U.^ ^ ^ A.5 V./ ^ ^ ^ ++_+2+^ ^ ^ ^ ^ ^ ^ (#V V V _#:#<#4 [#@           ",
"          @ = ^ 2 ]#^#Y Y Y /#5 5 5 5 5 5 5 5 (+*+=+T.5 U.^ ^ ^ A.5 V.^ ^ ^ ^ ++_+2+^ ^ ^ ^ ^ ^ ^ (#V V V }#:#|#1#2#@           ",
"          + * ^ 2 i -#Y Y Y ;#5 5 5 5 5 5 5 5 (+*+z.3#4#I / ^ ^ A.5 5#/ ^ ^ ^ ++_+2+^ ^ ^ ^ ^ ^ ^ 6#;+V V 7#8#9#^ = @           ",
"          . - ^ 1 R@C Y Y Y 0#o 5 5 5 5 5 5 5 (+*+^ 6@I@a#b#^ ^ c#d#e#f#g#h#i#j#4 k#A+^ ^ ^ ^ ^ / a@V V V l#m#n#^ o#p#          ",
"            % ^ ^ q#D Z Y Y r#%.5 5 5 5 5 5 5 4 s#t#^+u#^+v#z.^ w#x#~@y+y+y#J+z#A#B#C#D#^ ^ ^ ^ | E#V V V 5.F#^ ^ G#*@          ",
"            H#I#!+J#K#^+Y Y h@6 5 5 5 5 5 5 5 L#M#v+N#O#^+P#] ^ Q#R#^+S#T#U#V#W#X#Y#Z#M ^ ^ ^ ^ M `#V V x@ $.$^ I#+$            ",
"            . @$(+m #$$$Y Y X %$5 5 5 5 5 5 &$*$^+=$-$K+v+;$m+^ A.U@E@Y >$]@M ,$9+'$.#^ ^ ^ ^ ^ )$x@V V !$~${$^ C.]$            ",
"            ^$: 5 n /$($Y Y Y _$6 5 5 5 9+:$<$^+[$j#T.d#}$|$1$^ A./.2$^+M@3$^ ++_+2+^ ^ ^ ^ ^ =+Y+V V V U 4$5$^ .#r+            ",
"            6$< 5 5 7$8$Y Y Y V+9$5 5 5 0$a$y+b$c$z.T.d$~@M@6+^ A.5 3 e$v+6@M ++_+2+^ ^ ^ ^ ^ f$G.V V V g$F#^ ^ h$.             ",
"              [ 6 5 I i$f+Y Y Y j$6 5 5 /.k$M+l$*+=+T.0$m$N#n$^ A.5 V.o$p$Y h.S._+2+^ ^ ^ ^ =+q$V V V r$s$t$^ ] u$              ",
"              v$4 5 J #.w$2.Y Y s+(.5 5 5 5 5 (+*+=+T.T@x$G@y$^ A.5 V.++z$^+A$.#_+2+^ ^ ^ ^ B$C+V V V C$D$E$^ n#^$              ",
"              F$7 5 5 G$[@f+Y Y ^+H$/.5 5 5 5 (+*+=+T./.I$h+J$^ A.5 V.^ / K$L$M$_+2+^ ^ ^ | N$V V V r$b.O$^ ^ G#P$              ",
"                8 o 5 J ].Q$Y Y ^+7+R$9+5 5 5 (+*+=+T.5 >#S.z./ A.5 V.^ ^ S$W.++_+2+^ ^ M T$V V V V U$O E$^ | :.                ",
"                V$7 5 5 ^.W$X$Y ^+%+V Y$Z$5 5 (+*+=+T.5 U.^ ^ ^ A.5 V.^ ^ ^ ^ ++_+2+^ M `$V V V V n+ %.%^ ^ G#*@                ",
"                  , +%5 5 7.@%$$^+%+V u.#%6 5 (+*+=+T.5 U.^ ^ ^ A.5 V.^ ^ ^ ^ ++_+:+| T$V V V V S $%%%^ ^ &%#                   ",
"                    K %.5 J q.*%$+%+V u.Y u#=%-%*+=+T.5 U.^ ^ ^ A.5 V.^ ^ ^ ^ ++5 ;%N$V V V V  .>%,%E$^ M '%                    ",
"                    ' )%/.5 n !%~%O.V u.Y Y s+{%]%S.T.5 U.^ ^ ^ A.5 V.^ ^ ^ ] .#^%Y.V V V V  ./%(%b ^ / _%.                     ",
"                      , (.5 5 J.I.H. .u.Y Y Y Y :%<%[%6 y.z.^ z.A._+B.w@{ )$<%G.V V V V V S >%}%b ^ ^ R.#                       ",
"                        _.8.5 5 n |%1%2%Y Y Y Y '.V n.3%4%5%6%7%8%9%> 0%m.n.V V V V V V n+a%b%c%^ ^ d%*.                        ",
"                          9.8.5 5 J.e%4+f%g%Y Y '.V V V V V V V W Y Y Y ).V V V V V r$U$h%.$E$^ ^ d%@                           ",
"                            9.(.i%*+^ c j%k%l%m%s@V V V V V V V W X Y Y ).V V V r$n%b.O o%^ ^ / R.*.                            ",
"                              , p%M ^ ^ q%r%s%t%u%o.v%x@V V V V W X Y Z ).w%n+x%s$D$y%E$^ ^ M _%#                               ",
"                                @ )+} / z%4 J S+A%/@B%C%D%E%F%G%H%I%J%Q$K%~$L%F#t$E$^ ^ ^ &%M%p#                                ",
"                                    # N%(+5 5 5 5 (@I O%P%Q%R%S%T%U%V%W%.${$5$^ ^ ^ ^ | G##                                     ",
"                                      6$_.)%F+9+5 5 6 ^ ^ 2 X%<#<#Y%Z%^ ^ ^ ^ ^ ] `%G#:.P$                                      ",
"                                          ' , T+<  &D.I#^ .&5 5 4 +&^ ^ I#@&.#h$u$r+.                                           ",
"                                                6$^$#&$&%&&&*&=&-&= o#G#+$]$r+p#                                                ",
"                                                        V$' *#;&@ @ p#*@                                                        ",
"                                                                                                                                ",
"                                                                                                                                ",
"                                                                                                                                ",
"                                                                                                                                ",
"                                                                                                                                "};
