/* XPM */
static char * bitcoin16_xpm[] = {
"16 16 135 2",
"  	c None",
". 	c #A0CB9B",
"+ 	c #97C998",
"@ 	c #96C898",
"# 	c #B2D5A3",
"$ 	c #9CCA9A",
"% 	c #73AF86",
"& 	c #80AB88",
"* 	c #92B38E",
"= 	c #9CB997",
"- 	c #97B890",
"; 	c #99C493",
"> 	c #B7D8A4",
", 	c #94C997",
"' 	c #77A383",
") 	c #D7DDB9",
"! 	c #CADDA7",
"~ 	c #ACCD9B",
"{ 	c #C2DBAC",
"] 	c #C9DCA7",
"^ 	c #BACB9E",
"/ 	c #8DB08B",
"( 	c #B6DBA2",
"_ 	c #7BA688",
": 	c #D5E2B0",
"< 	c #C0DCA8",
"[ 	c #85BF8D",
"} 	c #78B78A",
"| 	c #8FC490",
"1 	c #6FB386",
"2 	c #A5CC98",
"3 	c #CEDDA8",
"4 	c #7CA685",
"5 	c #A1CC9D",
"6 	c #D5DCB6",
"7 	c #B6D6A2",
"8 	c #9ECD94",
"9 	c #BED8A6",
"0 	c #78B789",
"a 	c #B0D39F",
"b 	c #81BB8E",
"c 	c #85BF8C",
"d 	c #98C594",
"e 	c #BBCC9F",
"f 	c #99C492",
"g 	c #86AE8D",
"h 	c #E1EBBE",
"i 	c #9BCB93",
"j 	c #AED49C",
"k 	c #ACCF9F",
"l 	c #99C698",
"m 	c #BBD8A6",
"n 	c #9FC999",
"o 	c #BCD6A6",
"p 	c #6FB486",
"q 	c #C6DAA5",
"r 	c #8DB38C",
"s 	c #A1CB9D",
"t 	c #9DBA99",
"u 	c #CAE0B0",
"v 	c #9ECD95",
"w 	c #B4D5A0",
"x 	c #A7CE9D",
"y 	c #8DC193",
"z 	c #A9D09C",
"A 	c #98C699",
"B 	c #86C08D",
"C 	c #79B78A",
"D 	c #9BB891",
"E 	c #B6DAA3",
"F 	c #98C998",
"G 	c #9BB999",
"H 	c #A0CE95",
"I 	c #A5D097",
"J 	c #9FCA9A",
"K 	c #8ABF91",
"L 	c #A8CF9D",
"M 	c #99C699",
"N 	c #99C796",
"O 	c #ACCE9B",
"P 	c #98B691",
"Q 	c #94C797",
"R 	c #A7CE9E",
"S 	c #9BBA93",
"T 	c #E0EBBE",
"U 	c #9BCB92",
"V 	c #BED9A6",
"W 	c #B3D3A0",
"X 	c #A8CDA1",
"Y 	c #BEDAA6",
"Z 	c #93C394",
"` 	c #97C795",
" .	c #73B587",
"..	c #81AC89",
"+.	c #9FCA9B",
"@.	c #97C291",
"#.	c #D2DBB6",
"$.	c #B5D6A2",
"%.	c #A2CF95",
"&.	c #A2CA9C",
"*.	c #8AC28E",
"=.	c #AACEA0",
"-.	c #88C08E",
";.	c #97C494",
">.	c #BECEA0",
",.	c #74AF86",
"'.	c #B7D8A5",
").	c #91B28F",
"!.	c #BFDCA8",
"~.	c #77B689",
"{.	c #91C591",
"].	c #6DB286",
"^.	c #CFDEA8",
"/.	c #78A384",
"(.	c #9BC99A",
"_.	c #B5DAA2",
":.	c #85AB87",
"<.	c #D6DDB9",
"[.	c #CADDA6",
"}.	c #C2DBAB",
"|.	c #C8DCA7",
"1.	c #BECDA0",
"2.	c #93C896",
"3.	c #99C89A",
"4.	c #92C08F",
"5.	c #95B68F",
"6.	c #96B590",
"7.	c #A4BE9B",
"8.	c #82AC89",
"9.	c #74AF87",
"0.	c #9CC99A",
"a.	c #A5CD9D",
"b.	c #B5D9A4",
"c.	c #99CA98",
"d.	c #A0CB9C",
"                                ",
"            . + @ #             ",
"        $ % & * = - ; >         ",
"      , ' ) ! ~ { ] ^ / (       ",
"    $ _ : < [ } | 1 2 3 4 5     ",
"    % 6 7 8 9 0 a b c d e f     ",
"  . g h i j k l m n o p q r s   ",
"  + t u v w x y z A B C ~ D E   ",
"  F G u H I J K L M N 0 O P Q   ",
"  R S T U V W X Y Z `  .q ..+.  ",
"    @.#.$.%.B &.*.=.-.;.>.,.    ",
"    '.).: !.B ~.{.].2 ^./.(.    ",
"      _.:.<.[.~ }.|.1./.2.      ",
"        3.4.5.6.7.8.9.0.        ",
"            a.b.c.d.            ",
"                                "};
