/* XPM */
static char * bitcoin32_xpm[] = {
"32 32 331 2",
"  	c None",
". 	c #BFDBAA",
"+ 	c #A3CD9D",
"@ 	c #95C696",
"# 	c #89C091",
"$ 	c #83BC8E",
"% 	c #88BF91",
"& 	c #A4CF9C",
"* 	c #BBD9A7",
"= 	c #CDE0B3",
"- 	c #B9D7A7",
"; 	c #95C597",
"> 	c #75B688",
", 	c #7BBC8B",
"' 	c #78B689",
") 	c #6DA181",
"! 	c #66967D",
"~ 	c #66957D",
"{ 	c #74A582",
"] 	c #A0CB95",
"^ 	c #A5D498",
"/ 	c #9ECD94",
"( 	c #B2D5A1",
"_ 	c #C9DEB0",
": 	c #A2CC9D",
"< 	c #76B688",
"[ 	c #7CBB8B",
"} 	c #64907A",
"| 	c #839C86",
"1 	c #9EAE90",
"2 	c #B7C99D",
"3 	c #C5D7A4",
"4 	c #D0DEAE",
"5 	c #CDD7B2",
"6 	c #A0B094",
"7 	c #869D87",
"8 	c #7A9C82",
"9 	c #A4D298",
"0 	c #BAD8A7",
"a 	c #91C495",
"b 	c #79BA8A",
"c 	c #699C7F",
"d 	c #94A391",
"e 	c #E3ECBF",
"f 	c #C9DCA8",
"g 	c #C5D8A4",
"h 	c #C6D8A4",
"i 	c #C8D9A5",
"j 	c #D2E0B0",
"k 	c #E0E9BD",
"l 	c #CBDCAB",
"m 	c #C6D9A5",
"n 	c #C8DBA5",
"o 	c #899D87",
"p 	c #85AB88",
"q 	c #A2D197",
"r 	c #B0D49F",
"s 	c #7CBC8B",
"t 	c #688F7B",
"u 	c #B9C8A0",
"v 	c #E0EABE",
"w 	c #DFE9BD",
"x 	c #CADBA8",
"y 	c #B7D49F",
"z 	c #9AC695",
"A 	c #8ABF8F",
"B 	c #A8D09B",
"C 	c #ACCE9D",
"D 	c #C6D9A4",
"E 	c #B4C69C",
"F 	c #779680",
"G 	c #AFD49F",
"H 	c #688F7C",
"I 	c #CEDBAF",
"J 	c #C7D9A7",
"K 	c #E3EABF",
"L 	c #C2DDA9",
"M 	c #74B588",
"N 	c #A2CE96",
"O 	c #84BD8D",
"P 	c #78B78A",
"Q 	c #9DCC95",
"R 	c #81BC8C",
"S 	c #7AB88A",
"T 	c #72B487",
"U 	c #B0D19C",
"V 	c #C9DAA6",
"W 	c #C4D7A4",
"X 	c #C0D3A2",
"Y 	c #789780",
"Z 	c #7EBD8B",
"` 	c #A1CC9D",
" .	c #689C7E",
"..	c #CAD3B0",
"+.	c #D4E1B3",
"@.	c #C9DAA7",
"#.	c #A9D29C",
"$.	c #A3D096",
"%.	c #83BD8D",
"&.	c #80BB8C",
"*.	c #76B689",
"=.	c #96C892",
"-.	c #81BB8C",
";.	c #B5C79C",
">.	c #6A9C7F",
",.	c #7DBA8A",
"'.	c #CBDFB1",
").	c #95C697",
"!.	c #94A491",
"~.	c #D7E3B4",
"{.	c #A5CF97",
"].	c #A1CE96",
"^.	c #A2CF96",
"/.	c #A6CB9B",
"(.	c #9CCB95",
"_.	c #A8CE9C",
":.	c #85BD8E",
"<.	c #82BC8D",
"[.	c #C9DAA5",
"}.	c #879C87",
"|.	c #A4D297",
"1.	c #BFDBAB",
"2.	c #E1EBBE",
"3.	c #DEE8BC",
"4.	c #BFDBA9",
"5.	c #9FCE95",
"6.	c #D4E2B4",
"7.	c #C0D9A6",
"8.	c #82BD8C",
"9.	c #9BCB94",
"0.	c #CADEAE",
"a.	c #A2CA9B",
"b.	c #95C792",
"c.	c #77B789",
"d.	c #9EC796",
"e.	c #C9DCA6",
"f.	c #9DCD94",
"g.	c #8BA08D",
"h.	c #9DCC94",
"i.	c #A4D097",
"j.	c #80BB8B",
"k.	c #E2E9BC",
"l.	c #95C493",
"m.	c #79B78A",
"n.	c #9ACA94",
"o.	c #D0E1B2",
"p.	c #9BC797",
"q.	c #74B587",
"r.	c #C3DBA8",
"s.	c #BCD6A6",
"t.	c #76B789",
"u.	c #74B688",
"v.	c #C7D9A5",
"w.	c #869D86",
"x.	c #A6D599",
"y.	c #A5CE9E",
"z.	c #78B589",
"A.	c #AEB9A0",
"B.	c #DDE8BC",
"C.	c #C7DEAD",
"D.	c #AFD39D",
"E.	c #BAD8A3",
"F.	c #A0C99A",
"G.	c #BDD7A3",
"H.	c #DFE8BB",
"I.	c #7FBA8B",
"J.	c #99CA94",
"K.	c #A8CC9A",
"L.	c #DBE5B8",
"M.	c #CADDAE",
"N.	c #7EB98B",
"O.	c #A7CB99",
"P.	c #C4D8A4",
"Q.	c #9EAF91",
"R.	c #7CB78A",
"S.	c #9CC99A",
"T.	c #6BA080",
"U.	c #DFE8BD",
"V.	c #B7D8A3",
"W.	c #BBD7A4",
"X.	c #C3DBA9",
"Y.	c #B9D5A7",
"Z.	c #C9DEAD",
"`.	c #C9DDAE",
" +	c #98CA93",
".+	c #D9E4B6",
"++	c #96C495",
"@+	c #93C791",
"#+	c #79B88A",
"$+	c #94C393",
"%+	c #B9CB9E",
"&+	c #77A584",
"*+	c #ADD39D",
"=+	c #64957B",
"-+	c #DEE7BB",
";+	c #77B689",
">+	c #8AC08F",
",+	c #7CB88A",
"'+	c #8ABF90",
")+	c #7EA384",
"!+	c #A1CE98",
"~+	c #A3CE96",
"{+	c #83BD8C",
"]+	c #7CBA8B",
"^+	c #78B789",
"/+	c #75B588",
"(+	c #97C893",
"_+	c #79A083",
":+	c #80BB8D",
"<+	c #6A9F80",
"[+	c #B6D8A3",
"}+	c #8BC090",
"|+	c #CBDDAF",
"1+	c #ADD19D",
"2+	c #CFE0B2",
"3+	c #C2DAAC",
"4+	c #B3D2A5",
"5+	c #B6D5A3",
"6+	c #93C394",
"7+	c #6B9E80",
"8+	c #94C596",
"9+	c #99C792",
"0+	c #ABB79F",
"a+	c #C6DEAD",
"b+	c #AED29C",
"c+	c #E5EABE",
"d+	c #BCD6A2",
"e+	c #D8E4B6",
"f+	c #A4CE98",
"g+	c #E0E8BB",
"h+	c #9FC89A",
"i+	c #BAD7A4",
"j+	c #A0B192",
"k+	c #77B488",
"l+	c #B9D8A5",
"m+	c #8FA38E",
"n+	c #9DCC93",
"o+	c #B4D49E",
"p+	c #E4EABE",
"q+	c #8EC092",
"r+	c #A4CE95",
"s+	c #E7EBBF",
"t+	c #6FB385",
"u+	c #BBD7A6",
"v+	c #C5DBAC",
"w+	c #71B387",
"x+	c #839B86",
"y+	c #7CBD8C",
"z+	c #9ECC94",
"A+	c #789B80",
"B+	c #E2ECBE",
"C+	c #BEDAA9",
"D+	c #9FCD95",
"E+	c #A6D097",
"F+	c #A0CD95",
"G+	c #7BB889",
"H+	c #DDE7B9",
"I+	c #99C597",
"J+	c #9DC796",
"K+	c #65907B",
"L+	c #75B587",
"M+	c #BEDAAA",
"N+	c #94A492",
"O+	c #A4CF97",
"P+	c #A0CE96",
"Q+	c #A3CB9A",
"R+	c #94C495",
"S+	c #83BC8D",
"T+	c #8B9F88",
"U+	c #C9DFB0",
"V+	c #83AA86",
"W+	c #C9D3B0",
"X+	c #A8D19B",
"Y+	c #A3D097",
"Z+	c #76B589",
"`+	c #97C892",
" @	c #B7C89D",
".@	c #6A9B7F",
"+@	c #B7D7A7",
"@@	c #BAD9A7",
"#@	c #779780",
"$@	c #CEDCAF",
"%@	c #C1DCA9",
"&@	c #73B588",
"*@	c #71B487",
"=@	c #AFD19C",
"-@	c #C2D4A2",
";@	c #688D7B",
">@	c #7ABA8A",
",@	c #A0CB9C",
"'@	c #A6D498",
")@	c #769680",
"!@	c #B9C9A0",
"~@	c #B7D49E",
"{@	c #99C695",
"]@	c #8CC090",
"^@	c #A9D09B",
"/@	c #A1CB9D",
"(@	c #ABCD9D",
"_@	c #B7C89C",
":@	c #7CBD8B",
"<@	c #90C394",
"[@	c #9ECF95",
"}@	c #699B7E",
"|@	c #E4EDC0",
"1@	c #C9DBA7",
"2@	c #8B9E88",
"3@	c #699B7F",
"4@	c #7ABA8B",
"5@	c #8DC591",
"6@	c #799B81",
"7@	c #879E87",
"8@	c #9CAE90",
"9@	c #D4E2B2",
"0@	c #CFD9B4",
"a@	c #A5B496",
"b@	c #A1CB9C",
"c@	c #BCD9AA",
"d@	c #B4D6A1",
"e@	c #93C391",
"f@	c #699D80",
"g@	c #7CA182",
"h@	c #7EA383",
"i@	c #6FA081",
"j@	c #B7D6A7",
"k@	c #B8D8A5",
"l@	c #92C395",
"m@	c #A1CD9A",
"n@	c #A7D19A",
"o@	c #8EC391",
"p@	c #87BF90",
"                                                                ",
"                                                                ",
"                                                                ",
"                      . + @ # $ $ % & * =                       ",
"                  - ; > , ' ) ! ~ { ] ^ / ( _                   ",
"                : < [ } | 1 2 3 4 5 6 7 8 9 / 0                 ",
"              a b c d e f g h i j k l m n o p q r               ",
"            a s t u v w x y z A B : C i g D E F ^ G             ",
"          : b H I J K L M N O P Q R S T U V W X Y Z `           ",
"        - <  ...+.@.#.$.P N %.P Q &.S *.=.-.h W ;.>.,.'.        ",
"        ).[ !.w ~.{.].^././ %.P (._.:.*.=.S <.[.D }.|.(         ",
"      1.> } 2.3.4.].].5.6.7.8.P 9.0.a.*.b.c.S d.g e.8 f.=       ",
"      + s g.k k h.].].i.j.k.l.m.n.o.p.q.r.s.t.u.v.D w.x.y.      ",
"      @ z.A.B.C.].].D.E.F.G.H.I.J.6.K.L.M.N.S S O.P.Q.R.S.      ",
"      # T.5 U.V.].5.W.X.Y.Z.`.&. +.+H.++@+#+S S $+h %+&+*+      ",
"      $ =+-+k G ].].].$.;+].R m.Q >+,+*.=.#+S S '+v.m )+!+      ",
"      $ =+-+k G ].].].i.m.~+{+m.Q ]+^+/+(+S S S A v.m _+:+      ",
"      # <+5 U.[+].].].i.}+H.|+/+1+2+3+4+5+6+#+S $+D %+7+%       ",
"      8+9+0+B.a+].].].b+c+d+e+T f+g+z h+i+'+S S O.P.j+k+8+      ",
"      l+^ m+w k n+].o+p+q+r+s+t+9.u+v+w+=.#+S /+v.D x+y+:       ",
"      = z+A+B+3.C+].D+E+P F+c+G+Q ,.H+I+=.#+S J+g e.K+L+M+      ",
"        ( 9 N+w ~.O+].i.P P+Q+N.Q R R+S+(+S -.[.D T+[ 8+        ",
"        U+/ V+W++.@.X+Y+P N O ^+Q R #+Z+`+-.g W  @.@< +@        ",
"          @@q #@$@J K %@&@N O P Q R S *@=@[.W -@;@>@,@          ",
"            r '@)@!@k w x ~@{@]@^@/@(@v.g D _@;@:@<@            ",
"              G [@}@N+|@1@g h v.j k l D e.2@3@4@<@              ",
"                ` /+5@6@7@8@%+x 9@0@a@x+K+[ < b@                ",
"                  c@d@f.x.e@f@g@h@i@k+y+/+8+j@                  ",
"                      = k@l@m@n@o@p@8+: M+                      ",
"                                                                ",
"                                                                ",
"                                                                "};
